<?xml version="1.0" encoding="iso-8859-1"?>
<!-- Generator: Adobe Illustrator 18.1.0, SVG Export Plug-In . SVG Version: 6.00 Build 0)  -->
<svg version="1.1" id="Layer_1" xmlns="http://www.w3.org/2000/svg" xmlns:xlink="http://www.w3.org/1999/xlink" x="0px" y="0px"
	 viewBox="0 0 113.542 114.037" style="enable-background:new 0 0 113.542 114.037;" xml:space="preserve">
<g>
	<g>
		<g>
			<path style="fill:none;stroke:#FFFFFF;stroke-width:2.3827;stroke-miterlimit:10;" d="M27.093,28.996V12.131
				C27.093,6.559,31.652,2,37.224,2h64.031c5.572,0,10.131,4.559,10.131,10.131v83.961c0,5.572-4.559,10.131-10.131,10.131H40.928"
				/>
		</g>
		<polyline style="fill:none;stroke:#FFFFFF;stroke-width:2.3827;stroke-miterlimit:10;" points="37.262,28.996 37.262,12.168 
			101.218,12.168 101.218,93.514 46.884,93.514 		"/>
		<circle style="fill:none;stroke:#FFFFFF;stroke-width:2.3827;stroke-miterlimit:10;" cx="69.239" cy="99.87" r="3.177"/>
	</g>
	<rect x="2" y="33.503" style="fill:#FFFFFF;" width="44.19" height="9.956"/>
	<rect x="4.549" y="29.591" style="fill:#FFFFFF;" width="38.988" height="4.852"/>
	
		<rect x="40.952" y="31.609" style="fill:none;stroke:#FFFFFF;stroke-width:1.8976;stroke-miterlimit:10;" width="3.253" height="3.417"/>
	
		<rect x="3.881" y="31.609" style="fill:none;stroke:#FFFFFF;stroke-width:1.8976;stroke-miterlimit:10;" width="3.253" height="3.417"/>
	<rect x="2" y="99.698" style="fill:#FFFFFF;" width="44.19" height="7.451"/>
	<rect x="4.653" y="106.209" style="fill:#FFFFFF;" width="38.988" height="4.852"/>
	
		<rect x="3.985" y="106.565" style="fill:none;stroke:#FFFFFF;stroke-width:1.8976;stroke-miterlimit:10;" width="3.253" height="3.417"/>
	
		<rect x="41.055" y="106.565" style="fill:none;stroke:#FFFFFF;stroke-width:1.8976;stroke-miterlimit:10;" width="3.253" height="3.417"/>
	<g>
		<path style="fill:none;stroke:#FFFFFF;stroke-width:1.8976;stroke-miterlimit:10;" d="M46.19,106.621
			c0,2.959-2.421,5.379-5.379,5.379H7.492c-2.959,0-5.379-2.421-5.379-5.379V34.78c0-2.959,2.421-5.379,5.379-5.379h33.319
			c2.959,0,5.379,2.421,5.379,5.379V106.621z"/>
	</g>
	<line style="fill:none;stroke:#FFFFFF;stroke-width:1.8976;stroke-miterlimit:10;" x1="2" y1="43.46" x2="46.303" y2="43.46"/>
	<line style="fill:none;stroke:#FFFFFF;stroke-width:1.8976;stroke-miterlimit:10;" x1="46.303" y1="99.698" x2="2" y2="99.698"/>
</g>
</svg>
